<mxfile host="app.diagrams.net" modified="2023-09-13T16:48:00.046Z" agent="Mozilla/5.0 (Windows NT 10.0; Win64; x64; rv:109.0) Gecko/20100101 Firefox/117.0" etag="vdJClRIGgzniuB9re8tk" version="21.7.5" type="device">
  <diagram name="Side-1" id="to2ywXyMUmW8DNVNjWIV">
    <mxGraphModel dx="1050" dy="558" grid="1" gridSize="10" guides="1" tooltips="1" connect="1" arrows="1" fold="1" page="1" pageScale="1" pageWidth="827" pageHeight="1169" math="0" shadow="0">
      <root>
        <mxCell id="0" />
        <mxCell id="1" parent="0" />
        <mxCell id="KA7q5OVmodCbKxPMd4Sn-46" value="" style="ellipse;whiteSpace=wrap;html=1;" vertex="1" parent="1">
          <mxGeometry x="384" y="960" width="26" height="30" as="geometry" />
        </mxCell>
        <mxCell id="KA7q5OVmodCbKxPMd4Sn-4" value="" style="shape=waypoint;sketch=0;size=6;pointerEvents=1;points=[];fillColor=none;resizable=0;rotatable=0;perimeter=centerPerimeter;snapToPoint=1;fontSize=13;spacing=3;container=1;strokeWidth=6;" vertex="1" parent="1">
          <mxGeometry x="394" y="80" width="20" height="20" as="geometry" />
        </mxCell>
        <mxCell id="KA7q5OVmodCbKxPMd4Sn-6" value="" style="endArrow=classic;html=1;rounded=0;exitX=0.833;exitY=0.5;exitDx=0;exitDy=0;exitPerimeter=0;" edge="1" parent="1">
          <mxGeometry width="50" height="50" relative="1" as="geometry">
            <mxPoint x="403.50000000000006" y="100" as="sourcePoint" />
            <mxPoint x="403.54" y="190" as="targetPoint" />
          </mxGeometry>
        </mxCell>
        <mxCell id="KA7q5OVmodCbKxPMd4Sn-7" value="Brugeren vælger i menuen" style="rounded=1;whiteSpace=wrap;html=1;" vertex="1" parent="1">
          <mxGeometry x="340" y="200" width="120" height="60" as="geometry" />
        </mxCell>
        <mxCell id="KA7q5OVmodCbKxPMd4Sn-8" value="" style="endArrow=classic;html=1;rounded=0;" edge="1" parent="1">
          <mxGeometry width="50" height="50" relative="1" as="geometry">
            <mxPoint x="400" y="280" as="sourcePoint" />
            <mxPoint x="400" y="360" as="targetPoint" />
          </mxGeometry>
        </mxCell>
        <mxCell id="KA7q5OVmodCbKxPMd4Sn-9" value="" style="rhombus;whiteSpace=wrap;html=1;" vertex="1" parent="1">
          <mxGeometry x="352" y="370" width="96" height="80" as="geometry" />
        </mxCell>
        <mxCell id="KA7q5OVmodCbKxPMd4Sn-13" value="" style="endArrow=classic;html=1;rounded=0;" edge="1" parent="1">
          <mxGeometry width="50" height="50" relative="1" as="geometry">
            <mxPoint x="399.5" y="469.75" as="sourcePoint" />
            <mxPoint x="400" y="680" as="targetPoint" />
          </mxGeometry>
        </mxCell>
        <mxCell id="KA7q5OVmodCbKxPMd4Sn-14" value="&lt;div&gt;Bruger opretter superhelt&lt;/div&gt;" style="text;html=1;align=center;verticalAlign=middle;resizable=0;points=[];autosize=1;strokeColor=none;fillColor=none;" vertex="1" parent="1">
          <mxGeometry x="390" y="480" width="150" height="30" as="geometry" />
        </mxCell>
        <mxCell id="KA7q5OVmodCbKxPMd4Sn-15" value="" style="endArrow=classic;html=1;rounded=0;" edge="1" parent="1">
          <mxGeometry width="50" height="50" relative="1" as="geometry">
            <mxPoint x="470" y="409.5" as="sourcePoint" />
            <mxPoint x="560" y="410" as="targetPoint" />
          </mxGeometry>
        </mxCell>
        <mxCell id="KA7q5OVmodCbKxPMd4Sn-18" value="Bruger vælger et få alle superhelte vist" style="text;html=1;strokeColor=none;fillColor=none;align=center;verticalAlign=middle;whiteSpace=wrap;rounded=0;" vertex="1" parent="1">
          <mxGeometry x="470" y="360" width="60" height="30" as="geometry" />
        </mxCell>
        <mxCell id="KA7q5OVmodCbKxPMd4Sn-19" value="Superhelten er oprettet" style="rounded=1;whiteSpace=wrap;html=1;" vertex="1" parent="1">
          <mxGeometry x="330" y="690" width="120" height="60" as="geometry" />
        </mxCell>
        <mxCell id="KA7q5OVmodCbKxPMd4Sn-21" value="Ingen superhelte vises" style="rounded=1;whiteSpace=wrap;html=1;" vertex="1" parent="1">
          <mxGeometry x="340" y="770" width="120" height="60" as="geometry" />
        </mxCell>
        <mxCell id="KA7q5OVmodCbKxPMd4Sn-24" value="" style="rhombus;whiteSpace=wrap;html=1;" vertex="1" parent="1">
          <mxGeometry x="590" y="340" width="100" height="90" as="geometry" />
        </mxCell>
        <mxCell id="KA7q5OVmodCbKxPMd4Sn-25" value="" style="edgeStyle=segmentEdgeStyle;endArrow=classic;html=1;curved=0;rounded=0;endSize=8;startSize=8;sourcePerimeterSpacing=0;targetPerimeterSpacing=0;" edge="1" parent="1">
          <mxGeometry width="100" relative="1" as="geometry">
            <mxPoint x="650" y="430" as="sourcePoint" />
            <mxPoint x="750" y="675" as="targetPoint" />
            <Array as="points">
              <mxPoint x="650" y="440" />
              <mxPoint x="750" y="440" />
            </Array>
          </mxGeometry>
        </mxCell>
        <mxCell id="KA7q5OVmodCbKxPMd4Sn-26" value="" style="endArrow=classic;html=1;rounded=0;" edge="1" parent="1">
          <mxGeometry width="50" height="50" relative="1" as="geometry">
            <mxPoint x="590" y="440" as="sourcePoint" />
            <mxPoint x="470" y="719.5" as="targetPoint" />
          </mxGeometry>
        </mxCell>
        <mxCell id="KA7q5OVmodCbKxPMd4Sn-27" value="Ingen superhelte er oprettet" style="text;html=1;align=center;verticalAlign=middle;resizable=0;points=[];autosize=1;strokeColor=none;fillColor=none;" vertex="1" parent="1">
          <mxGeometry x="510" y="585" width="170" height="30" as="geometry" />
        </mxCell>
        <mxCell id="KA7q5OVmodCbKxPMd4Sn-28" value="Alle superheltene vises" style="rounded=1;whiteSpace=wrap;html=1;" vertex="1" parent="1">
          <mxGeometry x="670" y="700" width="120" height="60" as="geometry" />
        </mxCell>
        <mxCell id="KA7q5OVmodCbKxPMd4Sn-29" value="" style="endArrow=classic;html=1;rounded=0;" edge="1" parent="1">
          <mxGeometry width="50" height="50" relative="1" as="geometry">
            <mxPoint x="790" y="680" as="sourcePoint" />
            <mxPoint x="480" y="240" as="targetPoint" />
            <Array as="points">
              <mxPoint x="790" y="240" />
            </Array>
          </mxGeometry>
        </mxCell>
        <mxCell id="KA7q5OVmodCbKxPMd4Sn-30" value="&lt;div&gt;Superhelte er oprettet&lt;/div&gt;" style="text;html=1;align=center;verticalAlign=middle;resizable=0;points=[];autosize=1;strokeColor=none;fillColor=none;" vertex="1" parent="1">
          <mxGeometry x="610" y="450" width="140" height="30" as="geometry" />
        </mxCell>
        <mxCell id="KA7q5OVmodCbKxPMd4Sn-32" value="" style="edgeStyle=segmentEdgeStyle;endArrow=classic;html=1;curved=0;rounded=0;endSize=8;startSize=8;sourcePerimeterSpacing=0;targetPerimeterSpacing=0;" edge="1" parent="1">
          <mxGeometry width="100" relative="1" as="geometry">
            <mxPoint x="340" y="419.5" as="sourcePoint" />
            <mxPoint x="250" y="419.5" as="targetPoint" />
            <Array as="points">
              <mxPoint x="250" y="419.5" />
            </Array>
          </mxGeometry>
        </mxCell>
        <mxCell id="KA7q5OVmodCbKxPMd4Sn-33" value="Bruger vælger at søge efter superhelt" style="text;html=1;align=center;verticalAlign=middle;resizable=0;points=[];autosize=1;strokeColor=none;fillColor=none;" vertex="1" parent="1">
          <mxGeometry x="170" y="358" width="220" height="30" as="geometry" />
        </mxCell>
        <mxCell id="KA7q5OVmodCbKxPMd4Sn-34" value="" style="rhombus;whiteSpace=wrap;html=1;" vertex="1" parent="1">
          <mxGeometry x="160" y="380" width="80" height="80" as="geometry" />
        </mxCell>
        <mxCell id="KA7q5OVmodCbKxPMd4Sn-35" value="" style="endArrow=classic;html=1;rounded=0;" edge="1" parent="1">
          <mxGeometry width="50" height="50" relative="1" as="geometry">
            <mxPoint x="170" y="460" as="sourcePoint" />
            <mxPoint x="330" y="790" as="targetPoint" />
            <Array as="points">
              <mxPoint x="170" y="790" />
              <mxPoint x="220" y="790" />
            </Array>
          </mxGeometry>
        </mxCell>
        <mxCell id="KA7q5OVmodCbKxPMd4Sn-36" value="Superhelten er ikke oprettet" style="text;html=1;align=center;verticalAlign=middle;resizable=0;points=[];autosize=1;strokeColor=none;fillColor=none;" vertex="1" parent="1">
          <mxGeometry x="160" y="660" width="170" height="30" as="geometry" />
        </mxCell>
        <mxCell id="KA7q5OVmodCbKxPMd4Sn-37" value="Superhelten vises" style="rounded=1;whiteSpace=wrap;html=1;" vertex="1" parent="1">
          <mxGeometry x="232" y="554.5" width="120" height="60" as="geometry" />
        </mxCell>
        <mxCell id="KA7q5OVmodCbKxPMd4Sn-38" value="" style="edgeStyle=segmentEdgeStyle;endArrow=classic;html=1;curved=0;rounded=0;endSize=8;startSize=8;sourcePerimeterSpacing=0;targetPerimeterSpacing=0;exitX=0.5;exitY=1;exitDx=0;exitDy=0;entryX=0;entryY=0.75;entryDx=0;entryDy=0;" edge="1" parent="1" source="KA7q5OVmodCbKxPMd4Sn-34" target="KA7q5OVmodCbKxPMd4Sn-37">
          <mxGeometry width="100" relative="1" as="geometry">
            <mxPoint x="195" y="445" as="sourcePoint" />
            <mxPoint x="210" y="600" as="targetPoint" />
            <Array as="points">
              <mxPoint x="200" y="495" />
              <mxPoint x="210" y="495" />
              <mxPoint x="210" y="600" />
            </Array>
          </mxGeometry>
        </mxCell>
        <mxCell id="KA7q5OVmodCbKxPMd4Sn-39" value="Superhelten er oprettet" style="text;html=1;align=center;verticalAlign=middle;resizable=0;points=[];autosize=1;strokeColor=none;fillColor=none;" vertex="1" parent="1">
          <mxGeometry x="210" y="500" width="140" height="30" as="geometry" />
        </mxCell>
        <mxCell id="KA7q5OVmodCbKxPMd4Sn-40" value="" style="edgeStyle=segmentEdgeStyle;endArrow=classic;html=1;curved=0;rounded=0;endSize=8;startSize=8;sourcePerimeterSpacing=0;targetPerimeterSpacing=0;" edge="1" parent="1">
          <mxGeometry width="100" relative="1" as="geometry">
            <mxPoint x="330" y="820" as="sourcePoint" />
            <mxPoint x="320" y="240" as="targetPoint" />
            <Array as="points">
              <mxPoint x="40" y="820" />
            </Array>
          </mxGeometry>
        </mxCell>
        <mxCell id="KA7q5OVmodCbKxPMd4Sn-41" value="" style="edgeStyle=segmentEdgeStyle;endArrow=classic;html=1;curved=0;rounded=0;endSize=8;startSize=8;sourcePerimeterSpacing=0;targetPerimeterSpacing=0;" edge="1" parent="1">
          <mxGeometry width="100" relative="1" as="geometry">
            <mxPoint x="430" y="730" as="sourcePoint" />
            <mxPoint x="200" y="820" as="targetPoint" />
            <Array as="points">
              <mxPoint x="480" y="730" />
              <mxPoint x="480" y="880" />
              <mxPoint x="200" y="880" />
            </Array>
          </mxGeometry>
        </mxCell>
        <mxCell id="KA7q5OVmodCbKxPMd4Sn-42" value="" style="shape=waypoint;sketch=0;size=6;pointerEvents=1;points=[];fillColor=none;resizable=0;rotatable=0;perimeter=centerPerimeter;snapToPoint=1;strokeColor=default;labelBorderColor=none;strokeWidth=5;fontSize=13;spacing=3;labelBackgroundColor=#FF0000;" vertex="1" parent="1">
          <mxGeometry x="387" y="965" width="20" height="20" as="geometry" />
        </mxCell>
        <mxCell id="KA7q5OVmodCbKxPMd4Sn-47" value="" style="edgeStyle=segmentEdgeStyle;endArrow=classic;html=1;curved=0;rounded=0;endSize=8;startSize=8;sourcePerimeterSpacing=0;targetPerimeterSpacing=0;" edge="1" parent="1">
          <mxGeometry width="100" relative="1" as="geometry">
            <mxPoint x="460" y="440" as="sourcePoint" />
            <mxPoint x="420" y="980" as="targetPoint" />
            <Array as="points">
              <mxPoint x="560" y="440" />
              <mxPoint x="560" y="540" />
              <mxPoint x="600" y="540" />
              <mxPoint x="600" y="980" />
            </Array>
          </mxGeometry>
        </mxCell>
        <mxCell id="KA7q5OVmodCbKxPMd4Sn-48" value="Bruger vælger at afslutte programmet" style="text;html=1;align=center;verticalAlign=middle;resizable=0;points=[];autosize=1;strokeColor=none;fillColor=none;" vertex="1" parent="1">
          <mxGeometry x="600" y="900" width="220" height="30" as="geometry" />
        </mxCell>
      </root>
    </mxGraphModel>
  </diagram>
</mxfile>
